<?xml version="1.0" encoding="UTF-8"?>
<!DOCTYPE svg PUBLIC "-//W3C//DTD SVG 1.1//EN" "http://www.w3.org/Graphics/SVG/1.1/DTD/svg11.dtd">
<!-- Creator: CorelDRAW 2019 (64-Bit) -->
<svg xmlns="http://www.w3.org/2000/svg" xml:space="preserve" width="7mm" height="7mm" version="1.1" style="shape-rendering:geometricPrecision; text-rendering:geometricPrecision; image-rendering:optimizeQuality; fill-rule:evenodd; clip-rule:evenodd"
viewBox="0 0 70 70"
 xmlns:xlink="http://www.w3.org/1999/xlink"
 xmlns:xodm="http://www.corel.com/coreldraw/odm/2003">
 <defs>
  <style type="text/css">
   <![CDATA[
    .str0 {stroke:#2B2A29;stroke-width:0.762;stroke-miterlimit:22.9256}
    .fil1 {fill:#FEFEFE}
    .fil0 {fill:#434242}
   ]]>
  </style>
 </defs>
 <g id="Слой_x0020_1">
  <metadata id="CorelCorpID_0Corel-Layer"/>
  <path class="fil0 str0" d="M8.799 13.081c0.373,-7.069 9.095,-12.071 24.474,-11.906 15.379,0.165 22.82,3.389 23.151,12.237 0.331,8.848 -19.513,13.064 -19.513,13.064 0.165,7.221 -0.294,21.509 0.496,21.663 3.267,0.637 9.74,-0.417 9.689,1.446l-0.098 3.516c-0.048,1.745 -5.109,-0.918 -5.084,0.826l0.058 4.009c0.009,0.63 3.983,-0.034 4.837,0.547 0.61,0.415 0.915,5.178 0.024,5.201l-18.506 0.5 0.15 -16.21c0,0 0.951,-20.962 -0.496,-22.325 -1.447,-1.363 -18.644,-2.439 -19.182,-12.568z"/>
  <path class="fil1 str0" d="M33.128 19.588c-17.593,-0.309 -19.908,-11.421 -0.463,-11.729 19.445,-0.308 19.908,10.957 0.463,11.729z"/>
 </g>
</svg>
