<?xml version="1.0" encoding="UTF-8"?>
<!DOCTYPE svg PUBLIC "-//W3C//DTD SVG 1.1//EN" "http://www.w3.org/Graphics/SVG/1.1/DTD/svg11.dtd">
<!-- Creator: CorelDRAW 2019 (64-Bit) -->
<svg xmlns="http://www.w3.org/2000/svg" xml:space="preserve" width="7mm" height="7mm" version="1.1" style="shape-rendering:geometricPrecision; text-rendering:geometricPrecision; image-rendering:optimizeQuality; fill-rule:evenodd; clip-rule:evenodd"
viewBox="0 0 70 70"
 xmlns:xlink="http://www.w3.org/1999/xlink"
 xmlns:xodm="http://www.corel.com/coreldraw/odm/2003">
 <defs>
  <style type="text/css">
   <![CDATA[
    .str1 {stroke:#2B2A29;stroke-width:2;stroke-miterlimit:22.9256}
    .str0 {stroke:#2B2A29;stroke-width:0.762;stroke-miterlimit:22.9256}
    .fil1 {fill:#EBECEC}
    .fil0 {fill:#EF7F1A}
   ]]>
  </style>
 </defs>
 <g id="Слой_x0020_1">
  <metadata id="CorelCorpID_0Corel-Layer"/>
  <path class="fil0 str0" d="M14.103 30.345c-1.157,-2.977 -1.322,-20.175 12.899,-21.828 10.621,-1.235 17.772,11.738 18.932,18.312 0.392,2.226 -2.83,0.94 -2.892,1.862 -0.247,3.646 -2.316,-15.048 -14.387,-15.379 -12.071,-0.331 -10.583,12.072 -10.914,14.718 -0.331,2.646 -3.638,2.315 -3.638,2.315z"/>
  <path class="fil0 str0" d="M7.984 29.352c2.15,-2.15 40.514,-3.308 44.649,0.661 4.135,3.969 2.48,26.955 -0.496,29.105 -2.976,2.15 -38.365,5.292 -41.672,0.827 -3.307,-4.465 -6.945,-25.301 -2.481,-30.593z"/>
  <path class="fil1 str1" d="M25.245 40.638c0,-0.992 -2.708,-6.821 2.418,-6.821 5.126,0 4.278,4.795 3.121,6.118 -1.157,1.323 3.163,10.749 3.163,10.749 0,0 -10.915,2.48 -11.576,0.992 -0.661,-1.488 2.874,-11.038 2.874,-11.038z"/>
 </g>
</svg>
