<?xml version="1.0" encoding="UTF-8"?>
<!DOCTYPE svg PUBLIC "-//W3C//DTD SVG 1.1//EN" "http://www.w3.org/Graphics/SVG/1.1/DTD/svg11.dtd">
<!-- Creator: CorelDRAW 2019 (64-Bit) -->
<svg xmlns="http://www.w3.org/2000/svg" xml:space="preserve" width="10mm" height="10mm" version="1.1" style="shape-rendering:geometricPrecision; text-rendering:geometricPrecision; image-rendering:optimizeQuality; fill-rule:evenodd; clip-rule:evenodd"
viewBox="0 0 100 100"
 xmlns:xlink="http://www.w3.org/1999/xlink"
 xmlns:xodm="http://www.corel.com/coreldraw/odm/2003">
 <defs>
  <style type="text/css">
   <![CDATA[
    .str1 {stroke:#00A0E3;stroke-width:0.762;stroke-miterlimit:22.9256}
    .str0 {stroke:#FFED00;stroke-width:0.762;stroke-miterlimit:22.9256}
    .fil1 {fill:#00A0E3}
    .fil0 {fill:#FFED00}
   ]]>
  </style>
 </defs>
 <g id="Слой_x0020_1">
  <metadata id="CorelCorpID_0Corel-Layer"/>
  <path class="fil0 str0" d="M78.032 41.011c0,0 0,-9.501 9.501,0 0,0 0,19.001 0,28.502 -9.501,0 -9.501,0 -9.501,0 -9.501,-9.501 0,-28.502 0,-28.502z"/>
  <path class="fil1 str1" d="M21.027 41.011c0,0 0,-9.501 9.501,0 0,0 0,19.001 0,19.001 0,9.501 0,9.501 -9.501,9.501 0,-9.501 0,-28.502 0,-28.502z"/>
  <path class="fil1 str1" d="M2.025 60.012l38.004 -19.001c0,0 0,-38.004 9.501,-38.004 9.5,0 9.5,38.004 9.5,38.004 0,0 38.004,19.001 38.004,19.001l0 9.501 -38.004 -19.001 0 28.502 19.002 9.501 0 9.501 -28.502 -9.501 -28.503 9.501 0 -9.501 19.002 -9.501 0 -28.502 -38.004 19.001 0 -9.501z"/>
  <path class="fil0 str0" d="M2.025 60.012l38.004 -19.001c0,0 0,-38.004 9.501,-38.004 0,0 0,85.508 0,85.508l-28.503 9.501 0 -9.501 19.002 -9.501 0 -28.502 -38.004 19.001 0 -9.501z"/>
 </g>
</svg>
