<?xml version="1.0" encoding="UTF-8"?>
<!DOCTYPE svg PUBLIC "-//W3C//DTD SVG 1.1//EN" "http://www.w3.org/Graphics/SVG/1.1/DTD/svg11.dtd">
<!-- Creator: CorelDRAW 2019 (64-Bit) -->
<svg xmlns="http://www.w3.org/2000/svg" xml:space="preserve" width="15mm" height="15mm" version="1.1" style="shape-rendering:geometricPrecision; text-rendering:geometricPrecision; image-rendering:optimizeQuality; fill-rule:evenodd; clip-rule:evenodd"
viewBox="0 0 150 150"
 xmlns:xlink="http://www.w3.org/1999/xlink"
 xmlns:xodm="http://www.corel.com/coreldraw/odm/2003">
 <defs>
  <style type="text/css">
   <![CDATA[
    .str1 {stroke:#00A0E3;stroke-width:0.762;stroke-miterlimit:22.9256}
    .str0 {stroke:#FFED00;stroke-width:0.762;stroke-miterlimit:22.9256}
    .fil1 {fill:#00A0E3}
    .fil0 {fill:#FFED00}
   ]]>
  </style>
 </defs>
 <g id="Слой_x0020_1">
  <metadata id="CorelCorpID_0Corel-Layer"/>
  <path class="fil0 str0" d="M118.305 63.544c0,0 0,-14.655 14.655,0 0,0 0,29.31 0,43.965 -14.655,0 -14.655,0 -14.655,0 -14.656,-14.655 0,-43.965 0,-43.965z"/>
  <path class="fil1 str1" d="M30.373 63.544c0,0 0,-14.655 14.656,0 0,0 0,29.31 0,29.31 0,14.655 0,14.655 -14.656,14.655 0,-14.655 0,-43.965 0,-43.965z"/>
  <path class="fil1 str1" d="M1.062 92.854l58.622 -29.31c0,0 0,-58.622 14.656,-58.622 14.654,0 14.654,58.622 14.654,58.622 0,0 58.622,29.31 58.622,29.31l0 14.655 -58.622 -29.309 0 43.965 29.311 14.655 0 14.656 -43.965 -14.656 -43.967 14.656 0 -14.656 29.311 -14.655 0 -43.965 -58.622 29.309 0 -14.655z"/>
  <path class="fil0 str0" d="M1.062 92.854l58.622 -29.31c0,0 0,-58.622 14.656,-58.622 0,0 0,131.898 0,131.898l-43.967 14.656 0 -14.656 29.311 -14.655 0 -43.965 -58.622 29.309 0 -14.655z"/>
 </g>
</svg>
