<?xml version="1.0" encoding="UTF-8"?>
<!DOCTYPE svg PUBLIC "-//W3C//DTD SVG 1.1//EN" "http://www.w3.org/Graphics/SVG/1.1/DTD/svg11.dtd">
<!-- Creator: CorelDRAW 2019 (64-Bit) -->
<svg xmlns="http://www.w3.org/2000/svg" xml:space="preserve" width="4mm" height="4mm" version="1.1" style="shape-rendering:geometricPrecision; text-rendering:geometricPrecision; image-rendering:optimizeQuality; fill-rule:evenodd; clip-rule:evenodd"
viewBox="0 0 40 40"
 xmlns:xlink="http://www.w3.org/1999/xlink"
 xmlns:xodm="http://www.corel.com/coreldraw/odm/2003">
 <defs>
  <style type="text/css">
   <![CDATA[
    .str0 {stroke:#4E565A;stroke-width:0.762;stroke-miterlimit:22.9256}
    .fil0 {fill:#4E565A}
   ]]>
  </style>
 </defs>
 <g id="Слой_x0020_1">
  <metadata id="CorelCorpID_0Corel-Layer"/>
  <path class="fil0 str0" d="M17.688 23.745c-0.279,0.159 -1.658,1.027 -1.631,4.576 0.034,4.322 2.005,9.305 3.99,9.305 1.974,0 2.077,-5.434 2.204,-9.765 0.106,-3.599 -2.226,-3.79 -1.078,-4.326 3.92,-1.831 2.311,-3.765 3.378,-4.664 2.34,-1.283 4.11,-1.469 5.851,-2.763 3.35,-2.49 4.983,-7.676 3.677,-8.729 -1.215,-0.981 -4.944,1.76 -7.663,4.693 -2.386,2.572 -2.369,4.875 -3.894,5.081 -1.411,-1.322 -3.546,-2.578 -5.406,-0.574 -0.105,0.068 -0.367,-3.457 -3.65,-6.427 -3.756,-3.396 -7.083,-4.474 -8.62,-3.341 -1.876,1.381 2.5,6.32 6.956,9.763 1.267,0.979 2.987,1.498 3.402,2.794 -0.711,2.267 2.484,4.377 2.484,4.377z"/>
 </g>
</svg>
