<?xml version="1.0" encoding="UTF-8"?>
<!DOCTYPE svg PUBLIC "-//W3C//DTD SVG 1.1//EN" "http://www.w3.org/Graphics/SVG/1.1/DTD/svg11.dtd">
<!-- Creator: CorelDRAW 2019 (64-Bit) -->
<svg xmlns="http://www.w3.org/2000/svg" xml:space="preserve" width="7mm" height="7mm" version="1.1" style="shape-rendering:geometricPrecision; text-rendering:geometricPrecision; image-rendering:optimizeQuality; fill-rule:evenodd; clip-rule:evenodd"
viewBox="0 0 70 70"
 xmlns:xlink="http://www.w3.org/1999/xlink"
 xmlns:xodm="http://www.corel.com/coreldraw/odm/2003">
 <defs>
  <style type="text/css">
   <![CDATA[
    .str1 {stroke:#2B2A29;stroke-width:2;stroke-miterlimit:22.9256}
    .str0 {stroke:#2B2A29;stroke-width:0.762;stroke-miterlimit:22.9256}
    .fil1 {fill:#EBECEC}
    .fil0 {fill:#EF7F1A}
   ]]>
  </style>
 </defs>
 <g id="Слой_x0020_1">
  <metadata id="CorelCorpID_0Corel-Layer"/>
  <path class="fil0 str0" d="M20.672 33.546c-3.121,-0.678 -17.557,-10.027 -11.091,-22.8 4.829,-9.54 19.594,-8.349 25.717,-5.69 2.073,0.901 -0.777,2.879 -0.042,3.44 2.905,2.217 -13.829,-6.37 -20.764,3.516 -6.935,9.886 4.231,15.486 6.256,17.222 2.024,1.736 -0.076,4.312 -0.076,4.312z"/>
  <path class="fil0 str0" d="M7.984 29.352c2.15,-2.15 40.514,-3.308 44.649,0.661 4.135,3.969 2.48,26.955 -0.496,29.105 -2.976,2.15 -38.365,5.292 -41.672,0.827 -3.307,-4.465 -6.945,-25.301 -2.481,-30.593z"/>
  <path class="fil1 str1" d="M25.245 40.638c0,-0.992 -2.708,-6.821 2.418,-6.821 5.126,0 4.278,4.795 3.121,6.118 -1.157,1.323 3.163,10.749 3.163,10.749 0,0 -10.915,2.48 -11.576,0.992 -0.661,-1.488 2.874,-11.038 2.874,-11.038z"/>
 </g>
</svg>
